HIERARCHY
ROOT Hips
{
	OFFSET 0.000000 0.000000 0.000000
	CHANNELS 6 Xposition Yposition Zposition Zrotation Yrotation Xrotation 
	JOINT LowerBack
	{
		OFFSET 0.000000 0.000000 0.000000
		CHANNELS 3 Zrotation Yrotation Xrotation
		JOINT Spine
		{
			OFFSET 0.028270 2.035590 -0.193380
			CHANNELS 3 Zrotation Yrotation Xrotation
			JOINT Spine1
			{
				OFFSET 0.056720 2.048850 -0.042750
				CHANNELS 3 Zrotation Yrotation Xrotation
				JOINT Neck
				{
					OFFSET 0.000000 0.000000 0.000000
					CHANNELS 3 Zrotation Yrotation Xrotation
					JOINT Neck1
					{
						OFFSET -0.054170 1.746240 0.172020
						CHANNELS 3 Zrotation Yrotation Xrotation
						JOINT Head
						{
							OFFSET 0.104070 1.761360 -0.123970
							CHANNELS 3 Zrotation Yrotation Xrotation
							End Site
							{
								OFFSET 0.000000 0.000000 0.000000
							}
						}
					}
				}
				JOINT LeftShoulder
				{
					OFFSET 0.000000 0.000000 0.000000
					CHANNELS 3 Zrotation Yrotation Xrotation
					JOINT LeftArm
					{
						OFFSET 3.362410 1.200890 -0.311210
						CHANNELS 3 Zrotation Yrotation Xrotation
						JOINT LeftForeArm
						{
							OFFSET 4.983000 -0.000000 -0.000000
							CHANNELS 3 Zrotation Yrotation Xrotation
							JOINT LeftHand
							{
								OFFSET 3.483560 -0.000000 -0.000000
								CHANNELS 3 Zrotation Yrotation Xrotation
								JOINT LeftFingerBase
								{
									OFFSET 0.000000 0.000000 0.000000
									CHANNELS 3 Zrotation Yrotation Xrotation
									JOINT LeftHandIndex1
									{
										OFFSET 0.715260 -0.000000 -0.000000
										CHANNELS 3 Zrotation Yrotation Xrotation
										End Site
										{
											OFFSET 0.000000 0.000000 0.000000
										}
									}
								}
								JOINT LThumb
								{
									OFFSET 0.000000 0.000000 0.000000
									CHANNELS 3 Zrotation Yrotation Xrotation
									End Site
									{
										OFFSET 0.000000 0.000000 0.000000
									}
								}
							}
						}
					}
				}
				JOINT RightShoulder
				{
					OFFSET 0.000000 0.000000 0.000000
					CHANNELS 3 Zrotation Yrotation Xrotation
					JOINT RightArm
					{
						OFFSET -3.136600 1.374050 -0.404650
						CHANNELS 3 Zrotation Yrotation Xrotation
						JOINT RightForeArm
						{
							OFFSET -5.241900 -0.000000 -0.000000
							CHANNELS 3 Zrotation Yrotation Xrotation
							JOINT RightHand
							{
								OFFSET -3.444170 -0.000000 -0.000000
								CHANNELS 3 Zrotation Yrotation Xrotation
								JOINT RightFingerBase
								{
									OFFSET 0.000000 0.000000 0.000000
									CHANNELS 3 Zrotation Yrotation Xrotation
									JOINT RightHandIndex1
									{
										OFFSET -0.622530 -0.000000 -0.000000
										CHANNELS 3 Zrotation Yrotation Xrotation
										End Site
										{
											OFFSET 0.000000 0.000000 0.000000
										}
									}
								}
								JOINT RThumb
								{
									OFFSET 0.000000 0.000000 0.000000
									CHANNELS 3 Zrotation Yrotation Xrotation
									End Site
									{
										OFFSET 0.000000 0.000000 0.000000
									}
								}
							}
						}
					}
				}
			}
		}
	}
}
}
MOTION
Frames: 12
Frame Time: 0.008333
-1.825412 15.546685 0.785931 -124.251317 -85.850718 177.232169 3.498090 -1.091881 -2.080625 -0.397993 -1.481528 -3.741634 -7.357176 -1.770210 -0.579675 10.618952 2.242052 -7.002461 -4.341317 -0.299966 -0.465648 0.000000 0.000000 0.000000 -7.159161 -0.974458 5.077964 -53.223231 -25.536766 15.511652 -2.880299 -45.757329 -0.000064 -2.659891 6.595703 -0.142207 -0.098173 0.208951 0.000000 0.000000 0.000000 0.000000 0.000000 0.000000 0.000000 21.978494 4.827872 4.780354 63.906219 6.352296 2.784979 2.800636 17.408679 0.016039 5.618324 1.890698 0.100599 0.007217 -0.153390 0.000000 0.000000 0.000000 0.000000 0.000000 0.000000 0.000000 
-1.921648 15.416147 0.796307 -119.894424 -86.262968 173.495080 3.729756 -1.149829 -2.398989 -0.353643 -1.571613 -3.825192 -7.390126 -1.868185 -0.630318 10.832293 2.309514 -7.074167 -4.372291 -0.301815 -0.494563 0.000000 0.000000 0.000000 -7.091762 -1.566346 5.173201 -52.698340 -26.038716 15.697846 -2.861294 -45.937745 -0.000172 -2.647270 6.708225 -0.143908 -0.098358 0.212376 0.000000 0.000000 0.000000 0.000000 0.000000 0.000000 0.000000 22.375706 4.894107 4.916405 63.427311 6.299889 3.275724 2.853383 17.049779 0.016746 5.956504 1.667559 0.095002 0.005376 -0.152233 0.000000 0.000000 0.000000 0.000000 0.000000 0.000000 0.000000 
-2.018272 15.281274 0.804024 -114.937618 -86.734053 169.042186 3.904747 -1.225168 -2.690944 -0.325041 -1.675957 -3.901249 -7.431878 -1.980274 -0.676528 11.057550 2.382388 -7.142393 -4.410867 -0.304261 -0.522388 0.000000 0.000000 0.000000 -7.057500 -2.193977 5.278013 -52.080655 -26.576030 15.962060 -2.854658 -45.960899 -0.000446 -2.586845 6.745350 -0.141108 -0.099649 0.215999 0.000000 0.000000 0.000000 0.000000 0.000000 0.000000 0.000000 22.819055 4.945604 5.049993 62.940822 6.354518 3.781521 2.912730 16.480456 0.017517 6.274404 1.604673 0.096608 0.003879 -0.151921 0.000000 0.000000 0.000000 0.000000 0.000000 0.000000 0.000000 
-2.115135 15.143927 0.808588 -109.273788 -87.266475 163.753845 3.995668 -1.320699 -2.943869 -0.318284 -1.794535 -3.970327 -7.475881 -2.106845 -0.731404 11.282579 2.537888 -7.192698 -4.456882 -0.307376 -0.545536 0.000000 0.000000 0.000000 -7.041204 -2.860814 5.400788 -51.394628 -27.149844 16.301932 -2.864528 -45.773613 -0.000804 -2.487626 6.683095 -0.133904 -0.102051 0.220137 0.000000 0.000000 0.000000 0.000000 0.000000 0.000000 0.000000 23.287511 5.069681 5.181775 62.495822 6.416576 4.037131 2.966153 15.753414 0.018324 6.594042 1.593110 0.100915 0.001928 -0.151988 0.000000 0.000000 0.000000 0.000000 0.000000 0.000000 0.000000 
-2.212802 15.005579 0.809974 -102.349132 -87.863904 157.083726 3.984159 -1.438249 -3.161959 -0.338035 -1.927681 -4.027860 -7.518435 -2.247180 -0.777283 11.501820 2.690984 -7.254421 -4.504578 -0.310494 -0.572310 0.000000 0.000000 0.000000 -7.036146 -3.524413 5.535747 -50.655799 -27.829028 16.773117 -2.894737 -45.309768 -0.001284 -2.342230 6.512535 -0.122099 -0.105782 0.224564 0.000000 0.000000 0.000000 0.000000 0.000000 0.000000 0.000000 23.763151 5.180882 5.310952 62.096133 6.619473 4.178784 3.016118 14.764722 0.019033 6.853957 1.665650 0.109322 0.000367 -0.152450 0.000000 0.000000 0.000000 0.000000 0.000000 0.000000 0.000000 
-2.311627 14.867819 0.808151 -93.096308 -88.533090 147.970516 3.835356 -1.577160 -3.351751 -0.392533 -2.072060 -4.079455 -7.550365 -2.398198 -0.827537 11.696164 2.909338 -7.309202 -4.552483 -0.313677 -0.597250 0.000000 0.000000 0.000000 -7.017779 -4.210924 5.686982 -49.906144 -28.568920 17.376560 -2.945710 -44.549874 -0.001876 -2.161241 6.256329 -0.107194 -0.110723 0.228940 0.000000 0.000000 0.000000 0.000000 0.000000 0.000000 0.000000 24.213905 5.355572 5.438373 61.785516 6.867971 3.993329 3.052207 13.557617 0.019594 7.065474 1.724780 0.116427 -0.001397 -0.152824 0.000000 0.000000 0.000000 0.000000 0.000000 0.000000 0.000000 
-2.411927 14.732338 0.803283 -79.087543 -89.285193 133.997104 3.478354 -1.729952 -3.518083 -0.499217 -2.215154 -4.127149 -7.561023 -2.546955 -0.885640 11.850999 3.199940 -7.354437 -4.596998 -0.316687 -0.619316 0.000000 0.000000 0.000000 -6.957677 -4.926015 5.851630 -49.188598 -29.343816 18.122659 -3.016716 -43.487610 -0.002586 -1.961642 5.959880 -0.091491 -0.116656 0.232470 0.000000 0.000000 0.000000 0.000000 0.000000 0.000000 0.000000 24.612663 5.609783 5.565321 61.588009 7.156730 3.406366 3.067249 12.138804 0.019904 7.208721 1.704978 0.117528 -0.003449 -0.152731 0.000000 0.000000 0.000000 0.000000 0.000000 0.000000 0.000000 
-2.514005 14.600801 0.795733 124.874159 -89.886328 -70.015754 2.806670 -1.839193 -3.657113 -0.679829 -2.293445 -4.164084 -7.540125 -2.629572 -0.934332 11.964912 3.474412 -7.421027 -4.631439 -0.318703 -0.647259 0.000000 0.000000 0.000000 -6.850140 -5.565101 6.015116 -48.511035 -30.246110 19.091456 -3.110562 -42.098669 -0.003466 -1.762350 5.673933 -0.077098 -0.123600 0.233702 0.000000 0.000000 0.000000 0.000000 0.000000 0.000000 0.000000 24.944052 5.883982 5.694453 61.490227 7.626469 2.581696 3.060475 10.473877 0.019819 7.226395 1.584401 0.110127 -0.005098 -0.152010 0.000000 0.000000 0.000000 0.000000 0.000000 0.000000 0.000000 
-2.617996 14.474730 0.786080 161.851151 -89.192983 -107.118164 2.133185 -1.714726 -3.764473 -0.834153 -2.142858 -4.198548 -7.499252 -2.489739 -0.998789 12.031967 3.803545 -7.487878 -4.651861 -0.319406 -0.674009 0.000000 0.000000 0.000000 -6.678174 -6.106014 6.150609 -47.945316 -31.165674 20.245581 -3.211536 -40.464726 -0.004422 -1.605306 5.485484 -0.066919 -0.129997 0.231139 0.000000 0.000000 0.000000 0.000000 0.000000 0.000000 0.000000 25.161727 6.331942 5.846809 61.491834 8.179810 1.371498 3.027744 8.669543 0.019385 7.118911 1.264786 0.088521 -0.006244 -0.150825 0.000000 0.000000 0.000000 0.000000 0.000000 0.000000 0.000000 
-2.723877 14.355872 0.774667 -166.053447 -89.211471 -139.407318 2.264844 -1.530960 -3.857173 -0.784880 -1.983421 -4.228022 -7.493216 -2.343934 -1.047874 12.041732 4.124073 -7.569706 -4.660192 -0.319155 -0.702835 0.000000 0.000000 0.000000 -6.459716 -6.621782 6.285706 -47.509259 -32.167781 21.644799 -3.320661 -38.588167 -0.005387 -1.536412 5.471705 -0.063445 -0.135449 0.225657 0.000000 0.000000 0.000000 0.000000 0.000000 0.000000 0.000000 25.239925 6.806257 6.001400 61.555857 8.861638 -0.036225 2.984474 6.809899 0.018305 6.846709 0.728709 0.052905 -0.005348 -0.147397 0.000000 0.000000 0.000000 0.000000 0.000000 0.000000 0.000000 
-2.831672 14.245734 0.762278 -147.288792 -89.739872 -158.412166 2.472864 -1.555349 -3.977253 -0.720086 -2.032098 -4.254809 -7.470977 -2.401125 -1.069931 11.986411 4.429043 -7.651120 -4.655079 -0.318266 -0.729305 0.000000 0.000000 0.000000 -6.161057 -7.226004 6.460290 -47.175590 -33.235063 23.323589 -3.457237 -36.541558 -0.006523 -1.618277 5.707483 -0.070178 -0.141180 0.216259 0.000000 0.000000 0.000000 0.000000 0.000000 0.000000 0.000000 25.197708 7.191116 6.126379 61.697352 9.631476 -1.514795 2.919817 5.039587 0.016424 6.407115 -0.038226 0.006073 -0.003071 -0.140527 0.000000 0.000000 0.000000 0.000000 0.000000 0.000000 0.000000 
-2.941300 14.145793 0.749513 43.582977 -89.715610 10.444205 2.433059 -1.646081 -4.117865 -0.715060 -2.129242 -4.283733 -7.415003 -2.503348 -1.081694 11.872175 4.727557 -7.724280 -4.633158 -0.316313 -0.750803 0.000000 0.000000 0.000000 -5.760981 -7.871838 6.645727 -46.942784 -34.275108 25.233430 -3.611529 -34.473409 -0.007857 -1.922149 6.253965 -0.093226 -0.145956 0.200906 0.000000 0.000000 0.000000 0.000000 0.000000 0.000000 0.000000 25.031252 7.563522 6.235628 61.920328 10.465567 -2.929241 2.839179 3.488331 0.013985 5.835644 -1.016367 -0.044768 0.000532 -0.131168 0.000000 0.000000 0.000000 0.000000 0.000000 0.000000 0.000000 
